{
  "accessors": [
    {
      "bufferView": 2,
      "componentType": 5126,
      "count": 2430,
      "max": [
        3.800504684448242,
        2.20808482170105,
        7.672530651092529
      ],
      "min": [
        -3.800504684448242,
        -2.208082437515259,
        -7.672530651092529
      ],
      "type": "VEC3"
    },
    {
      "bufferView": 2,
      "byteOffset": 29160,
      "componentType": 5126,
      "count": 2430,
      "max": [
        1.0,
        1.0,
        1.0
      ],
      "min": [
        -1.0,
        -1.0,
        -1.0
      ],
      "type": "VEC3"
    },
    {
      "bufferView": 3,
      "componentType": 5126,
      "count": 2430,
      "max": [
        1.0,
        1.0,
        0.9998592138290405,
        1.0
      ],
      "min": [
        -1.0,
        -1.0,
        -0.9999822378158569,
        1.0
      ],
      "type": "VEC4"
    },
    {
      "bufferView": 1,
      "componentType": 5126,
      "count": 2430,
      "max": [
        0.9919236898422241,
        0.992333173751831
      ],
      "min": [
        0.011227747425436974,
        0.03390015661716461
      ],
      "type": "VEC2"
    },
    {
      "bufferView": 1,
      "byteOffset": 19440,
      "componentType": 5126,
      "count": 2430,
      "max": [
        0.9919236898422241,
        0.992333173751831
      ],
      "min": [
        0.011227747425436974,
        0.03390015661716461
      ],
      "type": "VEC2"
    },
    {
      "bufferView": 1,
      "byteOffset": 38880,
      "componentType": 5126,
      "count": 2430,
      "max": [
        0.9919236898422241,
        0.992333173751831
      ],
      "min": [
        0.011227747425436974,
        0.03390015661716461
      ],
      "type": "VEC2"
    },
    {
      "bufferView": 0,
      "componentType": 5125,
      "count": 8508,
      "type": "SCALAR"
    }
  ],
  "asset": {
    "extras": {
      "author": "plaggy (https://sketchfab.com/plaggy)",
      "license": "CC-BY-4.0 (http://creativecommons.org/licenses/by/4.0/)",
      "source": "https://sketchfab.com/3d-models/cc0-beer-tap-0786303b90ab413e9123481b528655cc",
      "title": "CC0 - Beer Tap"
    },
    "generator": "Sketchfab-13.68.0",
    "version": "2.0"
  },
  "bufferViews": [
    {
      "buffer": 0,
      "byteLength": 34032,
      "name": "floatBufferViews",
      "target": 34963
    },
    {
      "buffer": 0,
      "byteLength": 58320,
      "byteOffset": 34032,
      "byteStride": 8,
      "name": "floatBufferViews",
      "target": 34962
    },
    {
      "buffer": 0,
      "byteLength": 58320,
      "byteOffset": 92352,
      "byteStride": 12,
      "name": "floatBufferViews",
      "target": 34962
    },
    {
      "buffer": 0,
      "byteLength": 38880,
      "byteOffset": 150672,
      "byteStride": 16,
      "name": "floatBufferViews",
      "target": 34962
    }
  ],
  "buffers": [
    {
      "byteLength": 189552,
      "uri": "scene.bin"
    }
  ],
  "images": [
    {
      "uri": "textures/BeerTap_baseColor.png"
    },
    {
      "uri": "textures/BeerTap_metallicRoughness.png"
    },
    {
      "uri": "textures/BeerTap_normal.png"
    }
  ],
  "materials": [
    {
      "name": "BeerTap",
      "normalTexture": {
        "index": 2
      },
      "occlusionTexture": {
        "index": 1
      },
      "pbrMetallicRoughness": {
        "baseColorTexture": {
          "index": 0
        },
        "metallicRoughnessTexture": {
          "index": 1
        }
      }
    }
  ],
  "meshes": [
    {
      "name": "BeerTap_BeerTap_0",
      "primitives": [
        {
          "attributes": {
            "NORMAL": 1,
            "POSITION": 0,
            "TANGENT": 2,
            "TEXCOORD_0": 3,
            "TEXCOORD_1": 4,
            "TEXCOORD_2": 5
          },
          "indices": 6,
          "material": 0,
          "mode": 4
        }
      ]
    }
  ],
  "nodes": [
    {
      "children": [
        1
      ],
      "matrix": [
        1.0,
        0.0,
        0.0,
        0.0,
        0.0,
        2.220446049250313e-16,
        -1.0,
        0.0,
        0.0,
        1.0,
        2.220446049250313e-16,
        0.0,
        0.0,
        0.0,
        0.0,
        1.0
      ],
      "name": "Sketchfab_model"
    },
    {
      "children": [
        2
      ],
      "matrix": [
        0.02539999969303608,
        0.0,
        0.0,
        0.0,
        0.0,
        0.0,
        0.02539999969303608,
        0.0,
        0.0,
        -0.02539999969303608,
        0.0,
        0.0,
        0.0,
        0.0,
        0.0,
        1.0
      ],
      "name": "9a659d6cd67e4153bb04822809052211.fbx"
    },
    {
      "children": [
        3
      ],
      "name": "RootNode"
    },
    {
      "children": [
        4
      ],
      "matrix": [
        1.0,
        0.0,
        0.0,
        0.0,
        0.0,
        1.7484555336899632e-07,
        -0.9999999999999847,
        0.0,
        0.0,
        0.9999999999999847,
        1.7484555336899632e-07,
        0.0,
        0.0,
        0.0,
        -5.016493105358677e-06,
        1.0
      ],
      "name": "BeerTap"
    },
    {
      "mesh": 0,
      "name": "BeerTap_BeerTap_0"
    }
  ],
  "samplers": [
    {
      "magFilter": 9729,
      "minFilter": 9987,
      "wrapS": 10497,
      "wrapT": 10497
    }
  ],
  "scene": 0,
  "scenes": [
    {
      "name": "Sketchfab_Scene",
      "nodes": [
        0
      ]
    }
  ],
  "textures": [
    {
      "sampler": 0,
      "source": 0
    },
    {
      "sampler": 0,
      "source": 1
    },
    {
      "sampler": 0,
      "source": 2
    }
  ]
}
